<mxfile host="app.diagrams.net" agent="Mozilla/5.0 (Windows NT 10.0; Win64; x64) AppleWebKit/537.36 (KHTML, like Gecko) Chrome/131.0.0.0 Safari/537.36 Edg/131.0.0.0" version="25.0.3">
  <diagram name="Страница — 1" id="uE1BmmlgBucZEN7A9zzd">
    <mxGraphModel dx="1612" dy="735" grid="1" gridSize="10" guides="1" tooltips="1" connect="1" arrows="1" fold="1" page="1" pageScale="1" pageWidth="1169" pageHeight="827" math="0" shadow="0">
      <root>
        <mxCell id="0" />
        <mxCell id="1" parent="0" />
        <mxCell id="RYHyFqo-vxcArogN3yHj-1" value="Сотрудник" style="whiteSpace=wrap;strokeWidth=2;" vertex="1" parent="1">
          <mxGeometry x="20" y="761" width="336" height="99" as="geometry" />
        </mxCell>
        <mxCell id="RYHyFqo-vxcArogN3yHj-2" value="Система" style="whiteSpace=wrap;strokeWidth=2;" vertex="1" parent="1">
          <mxGeometry x="24" y="589" width="328" height="99" as="geometry" />
        </mxCell>
        <mxCell id="RYHyFqo-vxcArogN3yHj-3" value="Сервер_БД" style="whiteSpace=wrap;strokeWidth=2;" vertex="1" parent="1">
          <mxGeometry x="40" y="399" width="295" height="99" as="geometry" />
        </mxCell>
        <mxCell id="RYHyFqo-vxcArogN3yHj-4" value="Веб_ресурс" style="whiteSpace=wrap;strokeWidth=2;" vertex="1" parent="1">
          <mxGeometry x="40" y="210" width="297" height="99" as="geometry" />
        </mxCell>
        <mxCell id="RYHyFqo-vxcArogN3yHj-5" value="Гражданин" style="whiteSpace=wrap;strokeWidth=2;" vertex="1" parent="1">
          <mxGeometry x="43" y="20" width="291" height="99" as="geometry" />
        </mxCell>
        <mxCell id="RYHyFqo-vxcArogN3yHj-6" value="Гражданин" style="whiteSpace=wrap;strokeWidth=2;" vertex="1" parent="1">
          <mxGeometry x="122" y="45" width="142" height="49" as="geometry" />
        </mxCell>
        <mxCell id="RYHyFqo-vxcArogN3yHj-7" value="Веб_ресурс" style="whiteSpace=wrap;strokeWidth=2;" vertex="1" parent="1">
          <mxGeometry x="120" y="235" width="146" height="49" as="geometry" />
        </mxCell>
        <mxCell id="RYHyFqo-vxcArogN3yHj-8" value="Сервер_БД" style="whiteSpace=wrap;strokeWidth=2;" vertex="1" parent="1">
          <mxGeometry x="122" y="424" width="143" height="49" as="geometry" />
        </mxCell>
        <mxCell id="RYHyFqo-vxcArogN3yHj-9" value="Система" style="whiteSpace=wrap;strokeWidth=2;" vertex="1" parent="1">
          <mxGeometry x="132" y="614" width="122" height="49" as="geometry" />
        </mxCell>
        <mxCell id="RYHyFqo-vxcArogN3yHj-10" value="Сотрудник" style="whiteSpace=wrap;strokeWidth=2;" vertex="1" parent="1">
          <mxGeometry x="124" y="786" width="138" height="49" as="geometry" />
        </mxCell>
        <mxCell id="RYHyFqo-vxcArogN3yHj-11" value="Подать обращение" style="curved=1;startArrow=none;endArrow=block;exitX=0.23;exitY=1;entryX=0.24;entryY=-0.01;rounded=0;" edge="1" parent="1" source="RYHyFqo-vxcArogN3yHj-6" target="RYHyFqo-vxcArogN3yHj-7">
          <mxGeometry relative="1" as="geometry">
            <Array as="points">
              <mxPoint x="116" y="119" />
              <mxPoint x="116" y="210" />
            </Array>
          </mxGeometry>
        </mxCell>
        <mxCell id="RYHyFqo-vxcArogN3yHj-12" value="Зарегистрировать обращение" style="curved=1;startArrow=none;endArrow=block;exitX=0.23;exitY=0.99;entryX=0.22;entryY=0;rounded=0;" edge="1" parent="1" source="RYHyFqo-vxcArogN3yHj-7" target="RYHyFqo-vxcArogN3yHj-8">
          <mxGeometry relative="1" as="geometry">
            <Array as="points">
              <mxPoint x="114" y="309" />
              <mxPoint x="114" y="399" />
            </Array>
          </mxGeometry>
        </mxCell>
        <mxCell id="RYHyFqo-vxcArogN3yHj-13" value="Передать данные обращения" style="curved=1;startArrow=none;endArrow=block;exitX=0.22;exitY=1;entryX=0.18;entryY=0;rounded=0;" edge="1" parent="1" source="RYHyFqo-vxcArogN3yHj-8" target="RYHyFqo-vxcArogN3yHj-9">
          <mxGeometry relative="1" as="geometry">
            <Array as="points">
              <mxPoint x="114" y="498" />
              <mxPoint x="114" y="589" />
            </Array>
          </mxGeometry>
        </mxCell>
        <mxCell id="RYHyFqo-vxcArogN3yHj-14" value="Назначить исполнителя" style="curved=1;startArrow=none;endArrow=block;exitX=0.09;exitY=1;entryX=0.14;entryY=0;rounded=0;" edge="1" parent="1" source="RYHyFqo-vxcArogN3yHj-9" target="RYHyFqo-vxcArogN3yHj-10">
          <mxGeometry relative="1" as="geometry">
            <Array as="points">
              <mxPoint x="92" y="688" />
              <mxPoint x="92" y="761" />
            </Array>
          </mxGeometry>
        </mxCell>
        <mxCell id="RYHyFqo-vxcArogN3yHj-15" value="Рассмотреть обращение" style="curved=1;startArrow=none;endArrow=block;exitX=0.86;exitY=0;entryX=0.91;entryY=1;rounded=0;" edge="1" parent="1" source="RYHyFqo-vxcArogN3yHj-10" target="RYHyFqo-vxcArogN3yHj-9">
          <mxGeometry relative="1" as="geometry">
            <Array as="points">
              <mxPoint x="294" y="761" />
              <mxPoint x="294" y="688" />
            </Array>
          </mxGeometry>
        </mxCell>
        <mxCell id="RYHyFqo-vxcArogN3yHj-16" value="Отправить данные обращения" style="curved=1;startArrow=none;endArrow=block;exitX=0.82;exitY=0;entryX=0.77;entryY=1;rounded=0;" edge="1" parent="1" source="RYHyFqo-vxcArogN3yHj-9" target="RYHyFqo-vxcArogN3yHj-8">
          <mxGeometry relative="1" as="geometry">
            <Array as="points">
              <mxPoint x="272" y="589" />
              <mxPoint x="272" y="498" />
            </Array>
          </mxGeometry>
        </mxCell>
        <mxCell id="RYHyFqo-vxcArogN3yHj-17" value="Отправить данные обращения" style="curved=1;startArrow=none;endArrow=block;exitX=0.77;exitY=0;entryX=0.77;entryY=0.99;rounded=0;" edge="1" parent="1" source="RYHyFqo-vxcArogN3yHj-8" target="RYHyFqo-vxcArogN3yHj-7">
          <mxGeometry relative="1" as="geometry">
            <Array as="points">
              <mxPoint x="272" y="399" />
              <mxPoint x="272" y="309" />
            </Array>
          </mxGeometry>
        </mxCell>
        <mxCell id="RYHyFqo-vxcArogN3yHj-18" value="Отправить отчет обращения" style="curved=1;startArrow=none;endArrow=block;exitX=0.76;exitY=-0.01;entryX=0.77;entryY=1;rounded=0;" edge="1" parent="1" source="RYHyFqo-vxcArogN3yHj-7" target="RYHyFqo-vxcArogN3yHj-6">
          <mxGeometry relative="1" as="geometry">
            <Array as="points">
              <mxPoint x="270" y="210" />
              <mxPoint x="270" y="119" />
            </Array>
          </mxGeometry>
        </mxCell>
      </root>
    </mxGraphModel>
  </diagram>
</mxfile>
